<svg id="Layer_1" xmlns="http://www.w3.org/2000/svg" version="1.1" viewBox="0 0 113.43 47.46" fill="currentColor">
  <path d="M29.26,17.33l-9.32.25c-.1-.67-.36-1.26-.79-1.78-.43-.52-.99-.93-1.67-1.23-.69-.3-1.48-.45-2.38-.45-1.18,0-2.18.24-3,.71-.82.47-1.23,1.11-1.21,1.91-.01.62.24,1.16.76,1.62.52.46,1.45.82,2.79,1.1l6.15,1.16c3.18.61,5.55,1.62,7.11,3.03,1.56,1.41,2.34,3.28,2.36,5.61-.01,2.19-.66,4.09-1.94,5.71-1.28,1.62-3.03,2.88-5.24,3.77s-4.75,1.34-7.6,1.34c-4.55,0-8.14-.94-10.77-2.81-2.62-1.88-4.12-4.39-4.5-7.55l10.03-.25c.22,1.16.8,2.05,1.72,2.66.93.61,2.11.91,3.55.91,1.3,0,2.36-.24,3.18-.73.82-.48,1.23-1.13,1.25-1.93-.01-.72-.33-1.3-.96-1.73-.62-.44-1.6-.78-2.93-1.03l-5.56-1.06c-3.2-.58-5.58-1.66-7.14-3.23-1.56-1.57-2.34-3.58-2.33-6.01-.01-2.13.55-3.96,1.7-5.47s2.78-2.67,4.9-3.48c2.12-.8,4.62-1.21,7.5-1.21,4.32,0,7.72.9,10.22,2.71,2.49,1.81,3.87,4.29,4.13,7.44Z"/>
  <g>
    <polygon style="fill: var(--color-green)" points="35.81 23.73 45.18 33.1 45.18 14.36 35.81 23.73"/>
    <polygon  style="fill: var(--color-blue)"  points="45.18 0 35.03 0 35.03 10.15 45.18 0"/>
    <polygon  style="fill: var(--color-yellow)" points="35.03 37.3 35.03 47.46 45.18 47.46 35.03 37.3"/>
  </g>
  <path d="M61.77,0v47.46h-10.15V0h10.15Z"/>
  <path d="M78.36,0v47.46h-10.15V0h10.15Z"/>
  <path d="M112.64,17.33l-9.32.25c-.1-.67-.36-1.26-.79-1.78-.43-.52-.99-.93-1.67-1.23-.69-.3-1.48-.45-2.38-.45-1.18,0-2.18.24-3,.71-.82.47-1.23,1.11-1.21,1.91-.01.62.24,1.16.76,1.62.52.46,1.45.82,2.79,1.1l6.15,1.16c3.18.61,5.55,1.62,7.11,3.03,1.56,1.41,2.34,3.28,2.36,5.61-.01,2.19-.66,4.09-1.94,5.71-1.28,1.62-3.03,2.88-5.24,3.77s-4.75,1.34-7.6,1.34c-4.55,0-8.14-.94-10.77-2.81-2.62-1.88-4.12-4.39-4.5-7.55l10.03-.25c.22,1.16.8,2.05,1.72,2.66.93.61,2.11.91,3.55.91,1.3,0,2.36-.24,3.18-.73.82-.48,1.23-1.13,1.25-1.93-.01-.72-.33-1.3-.96-1.73-.62-.44-1.6-.78-2.93-1.03l-5.56-1.06c-3.2-.58-5.58-1.66-7.14-3.23-1.56-1.57-2.34-3.58-2.33-6.01-.01-2.13.55-3.96,1.7-5.47s2.78-2.67,4.9-3.48c2.12-.8,4.62-1.21,7.5-1.21,4.32,0,7.72.9,10.22,2.71,2.49,1.81,3.87,4.29,4.13,7.44Z"/>
</svg>
